<svg width="371" height="532" viewBox="0 0 371 532" fill="none" xmlns="http://www.w3.org/2000/svg">
<path d="M366 531.776V40.9585C366 21.0992 349.901 5 330.041 5H40.9585C21.0992 5 5 21.0991 5 40.9585V531.776" stroke="url(#paint0_linear_1_86)" stroke-width="8.39033"/>
<path d="M141.219 9.19211H229.56V21.5862C229.56 26.882 225.267 31.1751 219.971 31.1751H150.807C145.512 31.1751 141.219 26.882 141.219 21.5862V9.19211Z" fill="#F0F1F5"/>
<rect x="37.7191" y="67.1661" width="295.562" height="117.789" rx="18.5408" fill="#F0F1F5"/>
<circle cx="184.409" cy="103.702" r="11.997" fill="#6D75D7" fill-opacity="0.32" stroke="#6D75D7" stroke-width="1.09063"/>
<path d="M153.174 137.024C153.174 136.125 153.375 135.322 153.776 134.615C154.186 133.9 154.74 133.346 155.438 132.953C156.145 132.552 156.935 132.351 157.807 132.351C158.828 132.351 159.722 132.613 160.49 133.137C161.258 133.66 161.794 134.384 162.1 135.309H159.993C159.783 134.873 159.487 134.546 159.103 134.327C158.728 134.109 158.291 134 157.794 134C157.262 134 156.786 134.127 156.367 134.38C155.957 134.624 155.634 134.973 155.399 135.427C155.172 135.881 155.059 136.413 155.059 137.024C155.059 137.626 155.172 138.158 155.399 138.62C155.634 139.074 155.957 139.427 156.367 139.68C156.786 139.925 157.262 140.047 157.794 140.047C158.291 140.047 158.728 139.938 159.103 139.72C159.487 139.493 159.783 139.161 159.993 138.725H162.1C161.794 139.658 161.258 140.387 160.49 140.911C159.731 141.425 158.837 141.683 157.807 141.683C156.935 141.683 156.145 141.486 155.438 141.094C154.74 140.692 154.186 140.138 153.776 139.432C153.375 138.725 153.174 137.922 153.174 137.024ZM167.975 141.722C167.277 141.722 166.649 141.569 166.09 141.264C165.532 140.95 165.091 140.509 164.768 139.942C164.454 139.375 164.297 138.721 164.297 137.979C164.297 137.237 164.459 136.583 164.782 136.016C165.113 135.449 165.562 135.012 166.13 134.707C166.697 134.393 167.329 134.236 168.027 134.236C168.725 134.236 169.358 134.393 169.925 134.707C170.492 135.012 170.937 135.449 171.26 136.016C171.591 136.583 171.757 137.237 171.757 137.979C171.757 138.721 171.587 139.375 171.247 139.942C170.915 140.509 170.462 140.95 169.886 141.264C169.319 141.569 168.682 141.722 167.975 141.722ZM167.975 140.125C168.307 140.125 168.616 140.047 168.904 139.89C169.201 139.724 169.436 139.48 169.611 139.157C169.785 138.834 169.873 138.441 169.873 137.979C169.873 137.29 169.689 136.762 169.323 136.395C168.965 136.02 168.525 135.833 168.001 135.833C167.478 135.833 167.037 136.02 166.679 136.395C166.33 136.762 166.156 137.29 166.156 137.979C166.156 138.668 166.326 139.2 166.666 139.576C167.015 139.942 167.451 140.125 167.975 140.125ZM181.037 134.354V141.604H179.191V140.688C178.956 141.002 178.646 141.251 178.262 141.434C177.887 141.609 177.477 141.696 177.032 141.696C176.465 141.696 175.963 141.578 175.527 141.342C175.091 141.098 174.746 140.745 174.493 140.282C174.249 139.811 174.127 139.253 174.127 138.607V134.354H175.959V138.345C175.959 138.921 176.103 139.366 176.391 139.68C176.679 139.986 177.071 140.138 177.569 140.138C178.075 140.138 178.472 139.986 178.76 139.68C179.047 139.366 179.191 138.921 179.191 138.345V134.354H181.037ZM185.767 135.479C186.003 135.095 186.308 134.794 186.684 134.576C187.068 134.358 187.504 134.249 187.992 134.249V136.173H187.508C186.932 136.173 186.496 136.308 186.199 136.579C185.911 136.849 185.767 137.32 185.767 137.992V141.604H183.935V134.354H185.767V135.479ZM193.092 141.722C192.498 141.722 191.966 141.617 191.495 141.408C191.024 141.19 190.649 140.897 190.369 140.531C190.099 140.165 189.951 139.759 189.925 139.314H191.77C191.805 139.593 191.94 139.824 192.176 140.007C192.42 140.191 192.721 140.282 193.079 140.282C193.428 140.282 193.698 140.213 193.89 140.073C194.091 139.933 194.191 139.754 194.191 139.536C194.191 139.301 194.069 139.126 193.825 139.013C193.589 138.891 193.21 138.76 192.686 138.62C192.145 138.489 191.7 138.354 191.351 138.214C191.011 138.075 190.714 137.861 190.461 137.573C190.217 137.285 190.095 136.897 190.095 136.408C190.095 136.007 190.208 135.641 190.435 135.309C190.671 134.977 191.002 134.716 191.43 134.524C191.866 134.332 192.376 134.236 192.961 134.236C193.825 134.236 194.514 134.454 195.029 134.89C195.543 135.318 195.827 135.898 195.879 136.631H194.126C194.099 136.343 193.977 136.116 193.759 135.95C193.55 135.776 193.266 135.689 192.908 135.689C192.577 135.689 192.32 135.75 192.136 135.872C191.962 135.994 191.875 136.164 191.875 136.382C191.875 136.627 191.997 136.814 192.241 136.945C192.485 137.067 192.865 137.194 193.38 137.325C193.903 137.455 194.335 137.591 194.675 137.73C195.016 137.87 195.308 138.088 195.552 138.385C195.805 138.673 195.936 139.056 195.945 139.536C195.945 139.955 195.827 140.33 195.591 140.662C195.365 140.993 195.033 141.255 194.597 141.447C194.169 141.63 193.668 141.722 193.092 141.722ZM205.28 137.822C205.28 138.084 205.262 138.319 205.227 138.529H199.927C199.97 139.052 200.154 139.462 200.476 139.759C200.799 140.055 201.196 140.204 201.667 140.204C202.348 140.204 202.832 139.912 203.12 139.327H205.096C204.887 140.025 204.486 140.601 203.892 141.055C203.299 141.499 202.57 141.722 201.707 141.722C201.009 141.722 200.38 141.569 199.822 141.264C199.272 140.95 198.841 140.509 198.526 139.942C198.221 139.375 198.068 138.721 198.068 137.979C198.068 137.229 198.221 136.57 198.526 136.003C198.832 135.436 199.259 134.999 199.809 134.694C200.359 134.389 200.991 134.236 201.707 134.236C202.396 134.236 203.011 134.384 203.552 134.681C204.102 134.977 204.525 135.401 204.822 135.95C205.127 136.491 205.28 137.115 205.28 137.822ZM203.382 137.298C203.373 136.827 203.203 136.452 202.872 136.173C202.54 135.885 202.134 135.741 201.654 135.741C201.201 135.741 200.817 135.881 200.503 136.16C200.197 136.43 200.01 136.81 199.94 137.298H203.382ZM211.485 133.752V132.063H214.639V141.604H212.754V133.752H211.485Z" fill="#20294C"/>
<path d="M162.31 162.187C162.31 162.603 162.202 162.995 161.986 163.362C161.778 163.722 161.466 164.022 161.05 164.262C160.642 164.494 160.158 164.63 159.599 164.67V165.642H158.831V164.658C158.031 164.586 157.387 164.346 156.899 163.938C156.411 163.522 156.159 162.963 156.143 162.259H157.943C157.991 162.835 158.287 163.183 158.831 163.302V161.011C158.255 160.867 157.791 160.723 157.439 160.579C157.087 160.435 156.783 160.203 156.527 159.883C156.271 159.563 156.143 159.128 156.143 158.576C156.143 157.88 156.391 157.312 156.887 156.872C157.391 156.432 158.039 156.18 158.831 156.116V155.145H159.599V156.116C160.366 156.18 160.978 156.412 161.434 156.812C161.898 157.212 162.158 157.764 162.214 158.468H160.402C160.378 158.236 160.294 158.036 160.15 157.868C160.014 157.692 159.83 157.568 159.599 157.496V159.763C160.198 159.915 160.67 160.063 161.014 160.207C161.366 160.343 161.67 160.571 161.926 160.891C162.182 161.203 162.31 161.635 162.31 162.187ZM157.895 158.492C157.895 158.756 157.975 158.972 158.135 159.14C158.295 159.299 158.527 159.431 158.831 159.535V157.46C158.543 157.5 158.315 157.608 158.147 157.784C157.979 157.96 157.895 158.196 157.895 158.492ZM159.599 163.326C159.902 163.27 160.138 163.147 160.306 162.955C160.482 162.763 160.57 162.531 160.57 162.259C160.57 161.995 160.486 161.783 160.318 161.623C160.15 161.463 159.91 161.331 159.599 161.227V163.326ZM164.88 157.4V155.852H167.771V164.598H166.043V157.4H164.88ZM172.548 162.835L171.145 166.206H170.065L170.845 162.835H172.548ZM174.586 162.895V161.575L178.509 155.96H180.464V161.431H181.52V162.895H180.464V164.598H178.785V162.895H174.586ZM178.893 157.76L176.433 161.431H178.893V157.76ZM183.68 160.111C183.68 158.728 183.928 157.644 184.424 156.86C184.927 156.076 185.759 155.684 186.919 155.684C188.079 155.684 188.906 156.076 189.402 156.86C189.906 157.644 190.158 158.728 190.158 160.111C190.158 161.503 189.906 162.595 189.402 163.386C188.906 164.178 188.079 164.574 186.919 164.574C185.759 164.574 184.927 164.178 184.424 163.386C183.928 162.595 183.68 161.503 183.68 160.111ZM188.503 160.111C188.503 159.519 188.463 159.024 188.383 158.624C188.311 158.216 188.159 157.884 187.927 157.628C187.703 157.372 187.367 157.244 186.919 157.244C186.471 157.244 186.131 157.372 185.899 157.628C185.675 157.884 185.523 158.216 185.443 158.624C185.371 159.024 185.335 159.519 185.335 160.111C185.335 160.719 185.371 161.231 185.443 161.647C185.515 162.055 185.667 162.387 185.899 162.643C186.131 162.891 186.471 163.015 186.919 163.015C187.367 163.015 187.707 162.891 187.939 162.643C188.171 162.387 188.323 162.055 188.395 161.647C188.467 161.231 188.503 160.719 188.503 160.111ZM192.526 160.111C192.526 158.728 192.774 157.644 193.27 156.86C193.774 156.076 194.606 155.684 195.765 155.684C196.925 155.684 197.753 156.076 198.249 156.86C198.753 157.644 199.005 158.728 199.005 160.111C199.005 161.503 198.753 162.595 198.249 163.386C197.753 164.178 196.925 164.574 195.765 164.574C194.606 164.574 193.774 164.178 193.27 163.386C192.774 162.595 192.526 161.503 192.526 160.111ZM197.349 160.111C197.349 159.519 197.309 159.024 197.229 158.624C197.157 158.216 197.005 157.884 196.773 157.628C196.549 157.372 196.213 157.244 195.765 157.244C195.318 157.244 194.978 157.372 194.746 157.628C194.522 157.884 194.37 158.216 194.29 158.624C194.218 159.024 194.182 159.519 194.182 160.111C194.182 160.719 194.218 161.231 194.29 161.647C194.362 162.055 194.514 162.387 194.746 162.643C194.978 162.891 195.318 163.015 195.765 163.015C196.213 163.015 196.553 162.891 196.785 162.643C197.017 162.387 197.169 162.055 197.241 161.647C197.313 161.231 197.349 160.719 197.349 160.111ZM202.309 164.682C202.005 164.682 201.753 164.59 201.553 164.406C201.361 164.214 201.265 163.978 201.265 163.698C201.265 163.418 201.361 163.186 201.553 163.003C201.753 162.811 202.005 162.715 202.309 162.715C202.604 162.715 202.848 162.811 203.04 163.003C203.232 163.186 203.328 163.418 203.328 163.698C203.328 163.978 203.232 164.214 203.04 164.406C202.848 164.59 202.604 164.682 202.309 164.682ZM211.458 157.304H207.571V159.355C207.739 159.148 207.979 158.98 208.291 158.852C208.603 158.716 208.935 158.648 209.287 158.648C209.927 158.648 210.451 158.788 210.858 159.068C211.266 159.347 211.562 159.707 211.746 160.147C211.93 160.579 212.022 161.043 212.022 161.539C212.022 162.459 211.758 163.198 211.23 163.758C210.711 164.318 209.967 164.598 208.999 164.598C208.087 164.598 207.359 164.37 206.816 163.914C206.272 163.458 205.964 162.863 205.892 162.127H207.523C207.595 162.447 207.755 162.703 208.003 162.895C208.259 163.087 208.583 163.183 208.975 163.183C209.447 163.183 209.803 163.035 210.043 162.739C210.283 162.443 210.403 162.051 210.403 161.563C210.403 161.067 210.279 160.691 210.031 160.435C209.791 160.171 209.435 160.039 208.963 160.039C208.627 160.039 208.347 160.123 208.123 160.291C207.899 160.459 207.739 160.683 207.643 160.963H206.036V155.828H211.458V157.304Z" fill="#676B89"/>
<circle cx="52.9879" cy="306.015" r="15.2689" fill="#F0F1F5"/>
<rect x="76.9819" y="290.746" width="113.426" height="11.997" rx="2.18127" fill="#F0F1F5"/>
<rect x="76.9819" y="311.468" width="179.955" height="9.81571" rx="2.18127" fill="#676B89" fill-opacity="0.07"/>
<rect x="312" y="295.109" width="21.34" height="21.3417" rx="10.67" fill="#6D75D7"/>
<path d="M325.019 305.136C325.681 305.522 325.681 306.478 325.019 306.864L322.004 308.623C321.337 309.012 320.5 308.531 320.5 307.759V304.241C320.5 303.469 321.337 302.988 322.004 303.377L325.019 305.136Z" fill="white"/>
<circle cx="52.9879" cy="369.272" r="15.2689" fill="#F0F1F5"/>
<rect x="76.9819" y="354.003" width="113.426" height="11.997" rx="2.18127" fill="#F0F1F5"/>
<rect x="76.9819" y="374.725" width="179.955" height="9.81571" rx="2.18127" fill="#676B89" fill-opacity="0.07"/>
<rect x="312" y="358.366" width="21.34" height="21.3417" rx="10.67" fill="#6D75D7"/>
<path d="M325.019 368.136C325.681 368.522 325.681 369.478 325.019 369.864L322.004 371.623C321.337 372.012 320.5 371.531 320.5 370.759V367.241C320.5 366.469 321.337 365.988 322.004 366.377L325.019 368.136Z" fill="white"/>
<circle cx="52.9879" cy="432.529" r="15.2689" fill="#F0F1F5"/>
<rect x="76.9819" y="417.26" width="113.426" height="11.997" rx="2.18127" fill="#F0F1F5"/>
<rect x="76.9819" y="437.982" width="179.955" height="9.81571" rx="2.18127" fill="#676B89" fill-opacity="0.07"/>
<rect x="312" y="421.622" width="21.34" height="21.3417" rx="10.67" fill="#6D75D7"/>
<path d="M325.019 432.136C325.681 432.522 325.681 433.478 325.019 433.864L322.004 435.623C321.337 436.012 320.5 435.531 320.5 434.759V431.241C320.5 430.469 321.337 429.988 322.004 430.377L325.019 432.136Z" fill="white"/>
<rect x="37" y="218.764" width="295.562" height="33.8097" rx="10.9063" fill="#F0F1F5"/>
<rect x="37.7191" y="218.764" width="91.6133" height="33.8097" rx="9.81571" fill="#6D75D7"/>
<path d="M67.5103 232.25V233.057H65.4381V239.852H64.4456V233.057H62.3625V232.25H67.5103ZM71.3386 239.95C70.7787 239.95 70.2697 239.823 69.8117 239.568C69.3609 239.314 69.0046 238.954 68.7428 238.489C68.4884 238.016 68.3611 237.471 68.3611 236.853C68.3611 236.242 68.492 235.704 68.7538 235.239C69.0228 234.766 69.3863 234.406 69.8444 234.159C70.3025 233.904 70.8151 233.777 71.3822 233.777C71.9493 233.777 72.4619 233.904 72.92 234.159C73.378 234.406 73.738 234.762 73.9997 235.228C74.2687 235.693 74.4032 236.235 74.4032 236.853C74.4032 237.471 74.2651 238.016 73.9888 238.489C73.7198 238.954 73.3526 239.314 72.8873 239.568C72.4219 239.823 71.9057 239.95 71.3386 239.95ZM71.3386 239.078C71.6948 239.078 72.0293 238.994 72.3419 238.827C72.6546 238.66 72.9054 238.409 73.0945 238.074C73.2908 237.74 73.389 237.333 73.389 236.853C73.389 236.373 73.2944 235.966 73.1054 235.631C72.9163 235.297 72.6691 235.05 72.3638 234.89C72.0584 234.722 71.7276 234.639 71.3713 234.639C71.0077 234.639 70.6733 234.722 70.3679 234.89C70.0698 235.05 69.8298 235.297 69.6481 235.631C69.4663 235.966 69.3754 236.373 69.3754 236.853C69.3754 237.34 69.4627 237.751 69.6372 238.085C69.8189 238.42 70.0589 238.67 70.357 238.838C70.6551 238.998 70.9823 239.078 71.3386 239.078ZM76.7006 234.977C76.897 234.635 77.1878 234.352 77.5732 234.126C77.9658 233.893 78.4202 233.777 78.9364 233.777C79.4672 233.777 79.9471 233.904 80.3761 234.159C80.8123 234.413 81.1541 234.773 81.4013 235.239C81.6485 235.697 81.7721 236.231 81.7721 236.842C81.7721 237.445 81.6485 237.983 81.4013 238.456C81.1541 238.929 80.8123 239.296 80.3761 239.557C79.9471 239.819 79.4672 239.95 78.9364 239.95C78.4275 239.95 77.9767 239.837 77.5841 239.612C77.1987 239.379 76.9042 239.092 76.7006 238.75V242.688H75.7082V233.875H76.7006V234.977ZM80.7578 236.842C80.7578 236.391 80.6669 235.998 80.4851 235.664C80.3034 235.329 80.0562 235.075 79.7435 234.9C79.4381 234.726 79.1 234.639 78.7292 234.639C78.3657 234.639 78.0276 234.73 77.7149 234.911C77.4096 235.086 77.1623 235.344 76.9733 235.686C76.7915 236.02 76.7006 236.409 76.7006 236.853C76.7006 237.304 76.7915 237.7 76.9733 238.042C77.1623 238.376 77.4096 238.634 77.7149 238.816C78.0276 238.99 78.3657 239.078 78.7292 239.078C79.1 239.078 79.4381 238.99 79.7435 238.816C80.0562 238.634 80.3034 238.376 80.4851 238.042C80.6669 237.7 80.7578 237.3 80.7578 236.842ZM83.5911 232.905C83.402 232.905 83.2421 232.839 83.1112 232.708C82.9803 232.577 82.9149 232.417 82.9149 232.228C82.9149 232.039 82.9803 231.879 83.1112 231.749C83.2421 231.618 83.402 231.552 83.5911 231.552C83.7728 231.552 83.9255 231.618 84.0491 231.749C84.18 231.879 84.2455 232.039 84.2455 232.228C84.2455 232.417 84.18 232.577 84.0491 232.708C83.9255 232.839 83.7728 232.905 83.5911 232.905ZM84.0709 233.875V239.852H83.0785V233.875H84.0709ZM85.3916 236.853C85.3916 236.235 85.5152 235.697 85.7625 235.239C86.0097 234.773 86.3514 234.413 86.7877 234.159C87.2312 233.904 87.7365 233.777 88.3036 233.777C89.038 233.777 89.6415 233.955 90.1141 234.312C90.594 234.668 90.9103 235.162 91.0629 235.795H89.9941C89.8923 235.431 89.6924 235.144 89.3943 234.933C89.1034 234.722 88.7399 234.617 88.3036 234.617C87.7365 234.617 87.2784 234.813 86.9294 235.206C86.5804 235.591 86.4059 236.14 86.4059 236.853C86.4059 237.573 86.5804 238.129 86.9294 238.521C87.2784 238.914 87.7365 239.11 88.3036 239.11C88.7399 239.11 89.1034 239.009 89.3943 238.805C89.6851 238.601 89.8851 238.311 89.9941 237.932H91.0629C90.903 238.543 90.5831 239.034 90.1032 239.405C89.6233 239.768 89.0235 239.95 88.3036 239.95C87.7365 239.95 87.2312 239.823 86.7877 239.568C86.3514 239.314 86.0097 238.954 85.7625 238.489C85.5152 238.023 85.3916 237.478 85.3916 236.853ZM95.1313 235.828C95.1313 234.577 95.3348 233.603 95.742 232.905C96.1492 232.199 96.8617 231.847 97.8797 231.847C98.8903 231.847 99.5992 232.199 100.006 232.905C100.414 233.603 100.617 234.577 100.617 235.828C100.617 237.1 100.414 238.089 100.006 238.794C99.5992 239.499 98.8903 239.852 97.8797 239.852C96.8617 239.852 96.1492 239.499 95.742 238.794C95.3348 238.089 95.1313 237.1 95.1313 235.828ZM99.6356 235.828C99.6356 235.195 99.592 234.661 99.5047 234.224C99.4247 233.781 99.2539 233.424 98.9921 233.155C98.7376 232.886 98.3668 232.752 97.8797 232.752C97.3852 232.752 97.0072 232.886 96.7454 233.155C96.4909 233.424 96.3201 233.781 96.2328 234.224C96.1528 234.661 96.1128 235.195 96.1128 235.828C96.1128 236.482 96.1528 237.031 96.2328 237.474C96.3201 237.918 96.4909 238.274 96.7454 238.543C97.0072 238.812 97.3852 238.947 97.8797 238.947C98.3668 238.947 98.7376 238.812 98.9921 238.543C99.2539 238.274 99.4247 237.918 99.5047 237.474C99.592 237.031 99.6356 236.482 99.6356 235.828ZM101.718 232.872V231.967H103.768V239.852H102.765V232.872H101.718Z" fill="white"/>
<path d="M173.321 232.25V233.057H171.249V239.852H170.257V233.057H168.173V232.25H173.321ZM177.15 239.95C176.59 239.95 176.081 239.823 175.623 239.568C175.172 239.314 174.816 238.954 174.554 238.489C174.299 238.016 174.172 237.471 174.172 236.853C174.172 236.242 174.303 235.704 174.565 235.239C174.834 234.766 175.197 234.406 175.655 234.159C176.113 233.904 176.626 233.777 177.193 233.777C177.76 233.777 178.273 233.904 178.731 234.159C179.189 234.406 179.549 234.762 179.811 235.228C180.08 235.693 180.214 236.235 180.214 236.853C180.214 237.471 180.076 238.016 179.8 238.489C179.531 238.954 179.164 239.314 178.698 239.568C178.233 239.823 177.717 239.95 177.15 239.95ZM177.15 239.078C177.506 239.078 177.84 238.994 178.153 238.827C178.466 238.66 178.716 238.409 178.905 238.074C179.102 237.74 179.2 237.333 179.2 236.853C179.2 236.373 179.105 235.966 178.916 235.631C178.727 235.297 178.48 235.05 178.175 234.89C177.869 234.722 177.539 234.639 177.182 234.639C176.819 234.639 176.484 234.722 176.179 234.89C175.881 235.05 175.641 235.297 175.459 235.631C175.277 235.966 175.186 236.373 175.186 236.853C175.186 237.34 175.274 237.751 175.448 238.085C175.63 238.42 175.87 238.67 176.168 238.838C176.466 238.998 176.793 239.078 177.15 239.078ZM182.512 234.977C182.708 234.635 182.999 234.352 183.384 234.126C183.777 233.893 184.231 233.777 184.747 233.777C185.278 233.777 185.758 233.904 186.187 234.159C186.623 234.413 186.965 234.773 187.212 235.239C187.46 235.697 187.583 236.231 187.583 236.842C187.583 237.445 187.46 237.983 187.212 238.456C186.965 238.929 186.623 239.296 186.187 239.557C185.758 239.819 185.278 239.95 184.747 239.95C184.238 239.95 183.788 239.837 183.395 239.612C183.01 239.379 182.715 239.092 182.512 238.75V242.688H181.519V233.875H182.512V234.977ZM186.569 236.842C186.569 236.391 186.478 235.998 186.296 235.664C186.114 235.329 185.867 235.075 185.555 234.9C185.249 234.726 184.911 234.639 184.54 234.639C184.177 234.639 183.839 234.73 183.526 234.911C183.221 235.086 182.973 235.344 182.784 235.686C182.603 236.02 182.512 236.409 182.512 236.853C182.512 237.304 182.603 237.7 182.784 238.042C182.973 238.376 183.221 238.634 183.526 238.816C183.839 238.99 184.177 239.078 184.54 239.078C184.911 239.078 185.249 238.99 185.555 238.816C185.867 238.634 186.114 238.376 186.296 238.042C186.478 237.7 186.569 237.3 186.569 236.842ZM189.402 232.905C189.213 232.905 189.053 232.839 188.922 232.708C188.791 232.577 188.726 232.417 188.726 232.228C188.726 232.039 188.791 231.879 188.922 231.749C189.053 231.618 189.213 231.552 189.402 231.552C189.584 231.552 189.737 231.618 189.86 231.749C189.991 231.879 190.056 232.039 190.056 232.228C190.056 232.417 189.991 232.577 189.86 232.708C189.737 232.839 189.584 232.905 189.402 232.905ZM189.882 233.875V239.852H188.889V233.875H189.882ZM191.203 236.853C191.203 236.235 191.326 235.697 191.573 235.239C191.821 234.773 192.162 234.413 192.599 234.159C193.042 233.904 193.548 233.777 194.115 233.777C194.849 233.777 195.452 233.955 195.925 234.312C196.405 234.668 196.721 235.162 196.874 235.795H195.805C195.703 235.431 195.503 235.144 195.205 234.933C194.914 234.722 194.551 234.617 194.115 234.617C193.548 234.617 193.089 234.813 192.74 235.206C192.391 235.591 192.217 236.14 192.217 236.853C192.217 237.573 192.391 238.129 192.74 238.521C193.089 238.914 193.548 239.11 194.115 239.11C194.551 239.11 194.914 239.009 195.205 238.805C195.496 238.601 195.696 238.311 195.805 237.932H196.874C196.714 238.543 196.394 239.034 195.914 239.405C195.434 239.768 194.834 239.95 194.115 239.95C193.548 239.95 193.042 239.823 192.599 239.568C192.162 239.314 191.821 238.954 191.573 238.489C191.326 238.023 191.203 237.478 191.203 236.853ZM200.942 235.828C200.942 234.577 201.146 233.603 201.553 232.905C201.96 232.199 202.673 231.847 203.691 231.847C204.701 231.847 205.41 232.199 205.817 232.905C206.225 233.603 206.428 234.577 206.428 235.828C206.428 237.1 206.225 238.089 205.817 238.794C205.41 239.499 204.701 239.852 203.691 239.852C202.673 239.852 201.96 239.499 201.553 238.794C201.146 238.089 200.942 237.1 200.942 235.828ZM205.447 235.828C205.447 235.195 205.403 234.661 205.316 234.224C205.236 233.781 205.065 233.424 204.803 233.155C204.549 232.886 204.178 232.752 203.691 232.752C203.196 232.752 202.818 232.886 202.556 233.155C202.302 233.424 202.131 233.781 202.044 234.224C201.964 234.661 201.924 235.195 201.924 235.828C201.924 236.482 201.964 237.031 202.044 237.474C202.131 237.918 202.302 238.274 202.556 238.543C202.818 238.812 203.196 238.947 203.691 238.947C204.178 238.947 204.549 238.812 204.803 238.543C205.065 238.274 205.236 237.918 205.316 237.474C205.403 237.031 205.447 236.482 205.447 235.828ZM207.671 239.056C208.594 238.314 209.318 237.707 209.841 237.234C210.365 236.755 210.804 236.257 211.161 235.74C211.524 235.217 211.706 234.704 211.706 234.202C211.706 233.73 211.59 233.359 211.357 233.09C211.132 232.814 210.764 232.676 210.256 232.676C209.761 232.676 209.376 232.832 209.099 233.145C208.83 233.45 208.685 233.861 208.663 234.377H207.703C207.733 233.563 207.98 232.934 208.445 232.49C208.91 232.047 209.51 231.825 210.245 231.825C210.994 231.825 211.586 232.032 212.022 232.447C212.466 232.861 212.688 233.432 212.688 234.159C212.688 234.762 212.506 235.351 212.142 235.926C211.786 236.493 211.379 236.994 210.921 237.431C210.463 237.86 209.877 238.361 209.165 238.936H212.917V239.765H207.671V239.056Z" fill="#676B89"/>
<path d="M267.132 232.25V233.057H265.06V239.852H264.067V233.057H261.984V232.25H267.132ZM270.96 239.95C270.4 239.95 269.891 239.823 269.433 239.568C268.983 239.314 268.626 238.954 268.364 238.489C268.11 238.016 267.983 237.471 267.983 236.853C267.983 236.242 268.114 235.704 268.375 235.239C268.644 234.766 269.008 234.406 269.466 234.159C269.924 233.904 270.437 233.777 271.004 233.777C271.571 233.777 272.084 233.904 272.542 234.159C273 234.406 273.36 234.762 273.621 235.228C273.89 235.693 274.025 236.235 274.025 236.853C274.025 237.471 273.887 238.016 273.61 238.489C273.341 238.954 272.974 239.314 272.509 239.568C272.044 239.823 271.527 239.95 270.96 239.95ZM270.96 239.078C271.316 239.078 271.651 238.994 271.964 238.827C272.276 238.66 272.527 238.409 272.716 238.074C272.912 237.74 273.011 237.333 273.011 236.853C273.011 236.373 272.916 235.966 272.727 235.631C272.538 235.297 272.291 235.05 271.985 234.89C271.68 234.722 271.349 234.639 270.993 234.639C270.629 234.639 270.295 234.722 269.99 234.89C269.691 235.05 269.451 235.297 269.27 235.631C269.088 235.966 268.997 236.373 268.997 236.853C268.997 237.34 269.084 237.751 269.259 238.085C269.441 238.42 269.681 238.67 269.979 238.838C270.277 238.998 270.604 239.078 270.96 239.078ZM276.322 234.977C276.519 234.635 276.809 234.352 277.195 234.126C277.587 233.893 278.042 233.777 278.558 233.777C279.089 233.777 279.569 233.904 279.998 234.159C280.434 234.413 280.776 234.773 281.023 235.239C281.27 235.697 281.394 236.231 281.394 236.842C281.394 237.445 281.27 237.983 281.023 238.456C280.776 238.929 280.434 239.296 279.998 239.557C279.569 239.819 279.089 239.95 278.558 239.95C278.049 239.95 277.598 239.837 277.206 239.612C276.82 239.379 276.526 239.092 276.322 238.75V242.688H275.33V233.875H276.322V234.977ZM280.379 236.842C280.379 236.391 280.289 235.998 280.107 235.664C279.925 235.329 279.678 235.075 279.365 234.9C279.06 234.726 278.722 234.639 278.351 234.639C277.987 234.639 277.649 234.73 277.337 234.911C277.031 235.086 276.784 235.344 276.595 235.686C276.413 236.02 276.322 236.409 276.322 236.853C276.322 237.304 276.413 237.7 276.595 238.042C276.784 238.376 277.031 238.634 277.337 238.816C277.649 238.99 277.987 239.078 278.351 239.078C278.722 239.078 279.06 238.99 279.365 238.816C279.678 238.634 279.925 238.376 280.107 238.042C280.289 237.7 280.379 237.3 280.379 236.842ZM283.213 232.905C283.024 232.905 282.864 232.839 282.733 232.708C282.602 232.577 282.537 232.417 282.537 232.228C282.537 232.039 282.602 231.879 282.733 231.749C282.864 231.618 283.024 231.552 283.213 231.552C283.394 231.552 283.547 231.618 283.671 231.749C283.802 231.879 283.867 232.039 283.867 232.228C283.867 232.417 283.802 232.577 283.671 232.708C283.547 232.839 283.394 232.905 283.213 232.905ZM283.693 233.875V239.852H282.7V233.875H283.693ZM285.013 236.853C285.013 236.235 285.137 235.697 285.384 235.239C285.631 234.773 285.973 234.413 286.409 234.159C286.853 233.904 287.358 233.777 287.925 233.777C288.66 233.777 289.263 233.955 289.736 234.312C290.216 234.668 290.532 235.162 290.685 235.795H289.616C289.514 235.431 289.314 235.144 289.016 234.933C288.725 234.722 288.362 234.617 287.925 234.617C287.358 234.617 286.9 234.813 286.551 235.206C286.202 235.591 286.028 236.14 286.028 236.853C286.028 237.573 286.202 238.129 286.551 238.521C286.9 238.914 287.358 239.11 287.925 239.11C288.362 239.11 288.725 239.009 289.016 238.805C289.307 238.601 289.507 238.311 289.616 237.932H290.685C290.525 238.543 290.205 239.034 289.725 239.405C289.245 239.768 288.645 239.95 287.925 239.95C287.358 239.95 286.853 239.823 286.409 239.568C285.973 239.314 285.631 238.954 285.384 238.489C285.137 238.023 285.013 237.478 285.013 236.853ZM294.753 235.828C294.753 234.577 294.956 233.603 295.364 232.905C295.771 232.199 296.483 231.847 297.501 231.847C298.512 231.847 299.221 232.199 299.628 232.905C300.035 233.603 300.239 234.577 300.239 235.828C300.239 237.1 300.035 238.089 299.628 238.794C299.221 239.499 298.512 239.852 297.501 239.852C296.483 239.852 295.771 239.499 295.364 238.794C294.956 238.089 294.753 237.1 294.753 235.828ZM299.257 235.828C299.257 235.195 299.214 234.661 299.126 234.224C299.046 233.781 298.876 233.424 298.614 233.155C298.359 232.886 297.988 232.752 297.501 232.752C297.007 232.752 296.629 232.886 296.367 233.155C296.113 233.424 295.942 233.781 295.854 234.224C295.774 234.661 295.734 235.195 295.734 235.828C295.734 236.482 295.774 237.031 295.854 237.474C295.942 237.918 296.113 238.274 296.367 238.543C296.629 238.812 297.007 238.947 297.501 238.947C297.988 238.947 298.359 238.812 298.614 238.543C298.876 238.274 299.046 237.918 299.126 237.474C299.214 237.031 299.257 236.482 299.257 235.828ZM301.58 233.952C301.63 233.283 301.889 232.759 302.354 232.381C302.819 232.003 303.423 231.814 304.164 231.814C304.659 231.814 305.084 231.905 305.44 232.087C305.804 232.261 306.077 232.501 306.258 232.806C306.447 233.112 306.542 233.457 306.542 233.843C306.542 234.293 306.411 234.682 306.149 235.01C305.895 235.337 305.56 235.548 305.146 235.642V235.697C305.618 235.813 305.993 236.042 306.269 236.384C306.546 236.725 306.684 237.173 306.684 237.725C306.684 238.14 306.589 238.514 306.4 238.849C306.211 239.176 305.928 239.434 305.549 239.623C305.171 239.812 304.717 239.906 304.186 239.906C303.415 239.906 302.783 239.707 302.288 239.307C301.794 238.899 301.518 238.325 301.46 237.583H302.419C302.47 238.02 302.648 238.376 302.954 238.652C303.259 238.929 303.666 239.067 304.175 239.067C304.684 239.067 305.07 238.936 305.331 238.674C305.6 238.405 305.735 238.06 305.735 237.638C305.735 237.093 305.553 236.7 305.19 236.46C304.826 236.22 304.277 236.1 303.543 236.1H303.292V235.271H303.554C304.222 235.264 304.728 235.155 305.07 234.944C305.411 234.726 305.582 234.392 305.582 233.941C305.582 233.555 305.455 233.246 305.2 233.014C304.953 232.781 304.597 232.665 304.132 232.665C303.681 232.665 303.317 232.781 303.041 233.014C302.765 233.246 302.601 233.559 302.55 233.952H301.58Z" fill="#676B89"/>
<defs>
<linearGradient id="paint0_linear_1_86" x1="185.5" y1="5" x2="185.5" y2="531.776" gradientUnits="userSpaceOnUse">
<stop stop-color="#F0F1F5"/>
<stop offset="1" stop-color="#F0F1F5" stop-opacity="0.36"/>
</linearGradient>
</defs>
</svg>
