<svg width="371" height="532" viewBox="0 0 371 532" fill="none" xmlns="http://www.w3.org/2000/svg">
<path d="M366 531.776V40.9585C366 21.0992 349.901 5 330.041 5H40.9585C21.0992 5 5 21.0992 5 40.9585V531.776" stroke="url(#paint0_linear_1_28)" stroke-width="8.39033"/>
<path d="M141.219 9.19211H229.56V21.5862C229.56 26.882 225.267 31.1751 219.971 31.1751H150.807C145.512 31.1751 141.219 26.882 141.219 21.5862V9.19211Z" fill="#F0F1F5"/>
<rect x="83.5256" y="72.6193" width="203.949" height="14.1782" rx="3.2719" fill="#F0F1F5"/>
<rect x="44.2628" y="108.61" width="281.384" height="129.785" rx="17.4502" fill="#20294C"/>
<rect x="62.8036" y="127.151" width="121.06" height="13.0876" rx="3.2719" fill="white" fill-opacity="0.47"/>
<rect x="62.8036" y="150.054" width="178.864" height="6.54381" rx="1.09063" fill="white" fill-opacity="0.29"/>
<path d="M63.3898 208.756V206.461H67.3889V217H64.8191V208.756H63.3898ZM76.5707 208.612H72.0663V210.604C72.2588 210.393 72.5283 210.219 72.8748 210.085C73.2213 209.95 73.5966 209.882 74.0009 209.882C74.7227 209.882 75.3195 210.046 75.7911 210.373C76.2723 210.701 76.6236 211.124 76.845 211.644C77.0664 212.164 77.1771 212.727 77.1771 213.333C77.1771 214.459 76.8594 215.354 76.2242 216.018C75.589 216.673 74.6939 217 73.5389 217C72.7689 217 72.1 216.87 71.5321 216.61C70.9642 216.341 70.5263 215.97 70.2183 215.499C69.9103 215.027 69.7419 214.483 69.713 213.867H72.124C72.1818 214.165 72.3213 214.416 72.5427 214.618C72.7641 214.81 73.0673 214.907 73.4522 214.907C73.9046 214.907 74.2415 214.762 74.4629 214.473C74.6842 214.185 74.7949 213.8 74.7949 213.318C74.7949 212.847 74.6794 212.486 74.4484 212.236C74.2174 211.985 73.8806 211.86 73.4378 211.86C73.1106 211.86 72.8411 211.942 72.6293 212.106C72.4176 212.26 72.278 212.467 72.2106 212.727H69.8285V206.446H76.5707V208.612ZM78.4099 209.117C78.4099 208.338 78.6312 207.736 79.074 207.313C79.5264 206.889 80.1087 206.677 80.8209 206.677C81.5331 206.677 82.1106 206.889 82.5534 207.313C82.9961 207.736 83.2175 208.338 83.2175 209.117C83.2175 209.897 82.9961 210.498 82.5534 210.922C82.1106 211.345 81.5331 211.557 80.8209 211.557C80.1087 211.557 79.5264 211.345 79.074 210.922C78.6312 210.498 78.4099 209.897 78.4099 209.117ZM88.2128 206.836L82.6544 217H80.2723L85.8306 206.836H88.2128ZM80.8065 208.121C80.3445 208.121 80.1135 208.453 80.1135 209.117C80.1135 209.772 80.3445 210.099 80.8065 210.099C81.0278 210.099 81.2011 210.017 81.3262 209.854C81.4513 209.69 81.5139 209.444 81.5139 209.117C81.5139 208.453 81.2781 208.121 80.8065 208.121ZM85.282 214.719C85.282 213.939 85.5034 213.338 85.9461 212.914C86.3889 212.491 86.9664 212.279 87.6786 212.279C88.3908 212.279 88.9683 212.491 89.4111 212.914C89.8538 213.338 90.0752 213.939 90.0752 214.719C90.0752 215.499 89.8538 216.1 89.4111 216.524C88.9683 216.947 88.3908 217.159 87.6786 217.159C86.9664 217.159 86.3889 216.947 85.9461 216.524C85.5034 216.1 85.282 215.499 85.282 214.719ZM87.6642 213.723C87.4428 213.723 87.2695 213.805 87.1444 213.968C87.0289 214.132 86.9712 214.382 86.9712 214.719C86.9712 215.373 87.2022 215.701 87.6642 215.701C87.8855 215.701 88.0588 215.619 88.1839 215.455C88.309 215.292 88.3716 215.046 88.3716 214.719C88.3716 214.392 88.309 214.146 88.1839 213.983C88.0588 213.809 87.8855 213.723 87.6642 213.723ZM98.4204 206.865C99.4887 206.865 100.422 207.077 101.221 207.5C102.02 207.924 102.636 208.521 103.069 209.29C103.512 210.051 103.733 210.932 103.733 211.933C103.733 212.924 103.512 213.805 103.069 214.575C102.636 215.345 102.015 215.941 101.207 216.365C100.408 216.788 99.4791 217 98.4204 217H94.6234V206.865H98.4204ZM98.2616 214.863C99.1952 214.863 99.9219 214.608 100.442 214.098C100.961 213.588 101.221 212.866 101.221 211.933C101.221 210.999 100.961 210.272 100.442 209.752C99.9219 209.233 99.1952 208.973 98.2616 208.973H97.0922V214.863H98.2616ZM106.427 208.107C105.994 208.107 105.638 207.982 105.358 207.731C105.089 207.471 104.954 207.154 104.954 206.778C104.954 206.393 105.089 206.076 105.358 205.826C105.638 205.566 105.994 205.436 106.427 205.436C106.85 205.436 107.197 205.566 107.466 205.826C107.745 206.076 107.885 206.393 107.885 206.778C107.885 207.154 107.745 207.471 107.466 207.731C107.197 207.982 106.85 208.107 106.427 208.107ZM107.654 208.944V217H105.185V208.944H107.654ZM112.792 217.115C112.09 217.115 111.464 216.995 110.916 216.755C110.367 216.514 109.934 216.187 109.616 215.773C109.299 215.349 109.121 214.878 109.082 214.358H111.522C111.551 214.637 111.681 214.863 111.912 215.037C112.143 215.21 112.427 215.296 112.764 215.296C113.072 215.296 113.307 215.239 113.471 215.123C113.644 214.998 113.731 214.839 113.731 214.647C113.731 214.416 113.611 214.247 113.37 214.141C113.129 214.026 112.74 213.901 112.201 213.766C111.623 213.631 111.142 213.492 110.757 213.347C110.372 213.193 110.04 212.958 109.761 212.64C109.482 212.313 109.342 211.875 109.342 211.326C109.342 210.864 109.467 210.445 109.717 210.07C109.977 209.685 110.353 209.382 110.843 209.161C111.344 208.939 111.936 208.829 112.619 208.829C113.63 208.829 114.424 209.079 115.001 209.579C115.588 210.08 115.925 210.744 116.012 211.572H113.731C113.692 211.292 113.567 211.071 113.356 210.907C113.153 210.744 112.884 210.662 112.547 210.662C112.258 210.662 112.037 210.72 111.883 210.835C111.729 210.941 111.652 211.09 111.652 211.283C111.652 211.514 111.772 211.687 112.013 211.803C112.263 211.918 112.648 212.034 113.168 212.149C113.765 212.303 114.251 212.457 114.626 212.611C115.001 212.755 115.329 212.996 115.608 213.333C115.896 213.66 116.046 214.103 116.055 214.661C116.055 215.133 115.921 215.556 115.651 215.932C115.391 216.297 115.011 216.586 114.511 216.798C114.02 217.01 113.447 217.115 112.792 217.115ZM117.147 212.972C117.147 212.135 117.315 211.403 117.652 210.778C117.999 210.152 118.475 209.671 119.082 209.334C119.698 208.997 120.4 208.829 121.189 208.829C122.2 208.829 123.042 209.093 123.716 209.623C124.399 210.152 124.847 210.898 125.059 211.86H122.431C122.21 211.244 121.781 210.936 121.146 210.936C120.694 210.936 120.333 211.114 120.063 211.471C119.794 211.817 119.659 212.318 119.659 212.972C119.659 213.626 119.794 214.132 120.063 214.488C120.333 214.834 120.694 215.008 121.146 215.008C121.781 215.008 122.21 214.7 122.431 214.084H125.059C124.847 215.027 124.399 215.768 123.716 216.307C123.033 216.846 122.19 217.115 121.189 217.115C120.4 217.115 119.698 216.947 119.082 216.61C118.475 216.273 117.999 215.792 117.652 215.166C117.315 214.541 117.147 213.809 117.147 212.972ZM130.118 217.115C129.329 217.115 128.617 216.947 127.982 216.61C127.356 216.273 126.86 215.792 126.495 215.166C126.139 214.541 125.961 213.809 125.961 212.972C125.961 212.144 126.143 211.418 126.509 210.792C126.875 210.157 127.375 209.671 128.011 209.334C128.646 208.997 129.358 208.829 130.147 208.829C130.937 208.829 131.649 208.997 132.284 209.334C132.919 209.671 133.42 210.157 133.786 210.792C134.151 211.418 134.334 212.144 134.334 212.972C134.334 213.8 134.146 214.531 133.771 215.166C133.405 215.792 132.9 216.273 132.255 216.61C131.62 216.947 130.908 217.115 130.118 217.115ZM130.118 214.979C130.59 214.979 130.989 214.806 131.317 214.459C131.654 214.113 131.822 213.617 131.822 212.972C131.822 212.327 131.658 211.831 131.331 211.485C131.014 211.138 130.619 210.965 130.147 210.965C129.666 210.965 129.267 211.138 128.949 211.485C128.631 211.822 128.473 212.318 128.473 212.972C128.473 213.617 128.627 214.113 128.935 214.459C129.252 214.806 129.647 214.979 130.118 214.979ZM143.671 208.944V217H141.202V215.903C140.952 216.259 140.61 216.548 140.177 216.769C139.754 216.981 139.282 217.087 138.762 217.087C138.146 217.087 137.603 216.952 137.131 216.682C136.659 216.403 136.294 216.004 136.034 215.484C135.774 214.964 135.644 214.353 135.644 213.651V208.944H138.098V213.318C138.098 213.857 138.238 214.276 138.517 214.575C138.796 214.873 139.171 215.022 139.643 215.022C140.124 215.022 140.504 214.873 140.784 214.575C141.063 214.276 141.202 213.857 141.202 213.318V208.944H143.671ZM150.425 208.857C151.368 208.857 152.119 209.165 152.677 209.781C153.245 210.388 153.529 211.225 153.529 212.293V217H151.075V212.626C151.075 212.087 150.935 211.668 150.656 211.369C150.377 211.071 150.002 210.922 149.53 210.922C149.058 210.922 148.683 211.071 148.404 211.369C148.125 211.668 147.985 212.087 147.985 212.626V217H145.516V208.944H147.985V210.012C148.235 209.656 148.572 209.377 148.996 209.175C149.419 208.963 149.896 208.857 150.425 208.857ZM159.807 214.907V217H158.551C157.656 217 156.958 216.783 156.457 216.35C155.957 215.908 155.707 215.191 155.707 214.199V210.994H154.725V208.944H155.707V206.981H158.175V208.944H159.792V210.994H158.175V214.228C158.175 214.469 158.233 214.642 158.349 214.748C158.464 214.854 158.657 214.907 158.926 214.907H159.807Z" fill="white"/>
<rect x="44.2628" y="274.387" width="134.148" height="95.9758" rx="18.5408" fill="#F0F1F5"/>
<circle cx="110.246" cy="303.289" r="11.997" fill="#919AFF" fill-opacity="0.24" stroke="#919AFF" stroke-width="1.09063"/>
<rect x="66.0756" y="347.459" width="89.432" height="8.72508" rx="2.18127" fill="#676B89" fill-opacity="0.15"/>
<rect x="44.2628" y="387.813" width="134.148" height="95.9758" rx="18.5408" fill="#F0F1F5"/>
<circle cx="110.246" cy="416.715" r="11.997" fill="#919AFF" fill-opacity="0.24" stroke="#919AFF" stroke-width="1.09063"/>
<rect x="66.0756" y="460.885" width="89.432" height="8.72508" rx="2.18127" fill="#676B89" fill-opacity="0.15"/>
<rect x="191.498" y="274.387" width="134.148" height="95.9758" rx="18.5408" fill="#F0F1F5"/>
<path d="M235.26 332.391C235.26 331.699 235.414 331.081 235.723 330.537C236.039 329.986 236.465 329.56 237.003 329.257C237.547 328.948 238.155 328.794 238.827 328.794C239.613 328.794 240.302 328.995 240.893 329.398C241.484 329.801 241.897 330.359 242.132 331.071H240.51C240.349 330.735 240.12 330.483 239.825 330.315C239.536 330.147 239.2 330.063 238.817 330.063C238.407 330.063 238.041 330.161 237.718 330.356C237.403 330.544 237.154 330.813 236.973 331.162C236.798 331.511 236.711 331.921 236.711 332.391C236.711 332.855 236.798 333.265 236.973 333.621C237.154 333.97 237.403 334.242 237.718 334.437C238.041 334.625 238.407 334.719 238.817 334.719C239.2 334.719 239.536 334.635 239.825 334.467C240.12 334.293 240.349 334.037 240.51 333.701H242.132C241.897 334.42 241.484 334.981 240.893 335.384C240.308 335.781 239.62 335.979 238.827 335.979C238.155 335.979 237.547 335.828 237.003 335.525C236.465 335.216 236.039 334.79 235.723 334.246C235.414 333.701 235.26 333.083 235.26 332.391ZM245.867 336.009C245.329 336.009 244.846 335.892 244.416 335.656C243.986 335.415 243.646 335.075 243.398 334.639C243.156 334.202 243.035 333.698 243.035 333.127C243.035 332.556 243.159 332.052 243.408 331.615C243.663 331.179 244.009 330.843 244.446 330.608C244.883 330.366 245.37 330.245 245.907 330.245C246.445 330.245 246.932 330.366 247.368 330.608C247.805 330.843 248.148 331.179 248.396 331.615C248.652 332.052 248.779 332.556 248.779 333.127C248.779 333.698 248.648 334.202 248.386 334.639C248.131 335.075 247.782 335.415 247.338 335.656C246.901 335.892 246.411 336.009 245.867 336.009ZM245.867 334.78C246.122 334.78 246.361 334.719 246.582 334.598C246.811 334.471 246.992 334.283 247.127 334.034C247.261 333.785 247.328 333.483 247.328 333.127C247.328 332.596 247.187 332.19 246.905 331.908C246.629 331.619 246.29 331.474 245.887 331.474C245.484 331.474 245.145 331.619 244.869 331.908C244.6 332.19 244.466 332.596 244.466 333.127C244.466 333.658 244.597 334.068 244.859 334.356C245.128 334.639 245.464 334.78 245.867 334.78ZM255.135 330.336V335.918H253.714V335.213C253.533 335.455 253.294 335.646 252.999 335.787C252.71 335.922 252.394 335.989 252.051 335.989C251.615 335.989 251.228 335.898 250.892 335.717C250.557 335.529 250.291 335.257 250.096 334.901C249.908 334.538 249.814 334.108 249.814 333.611V330.336H251.225V333.409C251.225 333.853 251.336 334.195 251.558 334.437C251.779 334.672 252.082 334.79 252.465 334.79C252.854 334.79 253.16 334.672 253.382 334.437C253.603 334.195 253.714 333.853 253.714 333.409V330.336H255.135ZM257.988 331.202C258.17 330.907 258.405 330.675 258.694 330.507C258.989 330.339 259.325 330.255 259.701 330.255V331.736H259.329C258.885 331.736 258.549 331.84 258.321 332.049C258.099 332.257 257.988 332.62 257.988 333.137V335.918H256.577V330.336H257.988V331.202ZM262.839 336.009C262.382 336.009 261.972 335.929 261.609 335.767C261.246 335.599 260.957 335.374 260.742 335.092C260.534 334.81 260.42 334.498 260.4 334.155H261.821C261.848 334.37 261.952 334.548 262.133 334.689C262.321 334.83 262.553 334.901 262.828 334.901C263.097 334.901 263.305 334.847 263.453 334.739C263.608 334.632 263.685 334.494 263.685 334.326C263.685 334.145 263.591 334.01 263.403 333.923C263.221 333.829 262.929 333.728 262.526 333.621C262.11 333.52 261.767 333.416 261.498 333.308C261.236 333.201 261.008 333.036 260.813 332.815C260.625 332.593 260.531 332.294 260.531 331.918C260.531 331.609 260.618 331.326 260.793 331.071C260.974 330.816 261.23 330.614 261.559 330.467C261.895 330.319 262.288 330.245 262.738 330.245C263.403 330.245 263.934 330.413 264.33 330.749C264.726 331.078 264.945 331.525 264.985 332.089H263.635C263.615 331.867 263.52 331.693 263.352 331.565C263.191 331.431 262.973 331.363 262.697 331.363C262.442 331.363 262.244 331.41 262.103 331.504C261.969 331.599 261.901 331.73 261.901 331.898C261.901 332.086 261.995 332.23 262.184 332.331C262.372 332.425 262.664 332.522 263.06 332.623C263.463 332.724 263.796 332.828 264.058 332.935C264.32 333.043 264.545 333.211 264.733 333.439C264.928 333.661 265.029 333.957 265.035 334.326C265.035 334.649 264.945 334.938 264.763 335.193C264.589 335.448 264.333 335.65 263.997 335.797C263.668 335.939 263.282 336.009 262.839 336.009ZM271.434 333.006C271.434 333.208 271.42 333.389 271.394 333.55H267.312C267.346 333.953 267.487 334.269 267.735 334.498C267.984 334.726 268.29 334.84 268.652 334.84C269.176 334.84 269.549 334.615 269.771 334.165H271.293C271.132 334.702 270.822 335.146 270.366 335.495C269.909 335.838 269.348 336.009 268.683 336.009C268.145 336.009 267.661 335.892 267.232 335.656C266.808 335.415 266.476 335.075 266.234 334.639C265.999 334.202 265.881 333.698 265.881 333.127C265.881 332.549 265.999 332.042 266.234 331.605C266.469 331.169 266.798 330.833 267.221 330.598C267.645 330.362 268.132 330.245 268.683 330.245C269.213 330.245 269.687 330.359 270.104 330.587C270.527 330.816 270.853 331.142 271.081 331.565C271.316 331.981 271.434 332.462 271.434 333.006ZM269.973 332.603C269.966 332.24 269.835 331.951 269.58 331.736C269.324 331.515 269.012 331.404 268.642 331.404C268.293 331.404 267.997 331.511 267.756 331.726C267.52 331.934 267.376 332.227 267.322 332.603H269.973ZM275.248 334.326C275.893 333.789 276.407 333.342 276.79 332.986C277.173 332.623 277.492 332.247 277.747 331.857C278.002 331.468 278.13 331.085 278.13 330.708C278.13 330.366 278.049 330.097 277.888 329.902C277.727 329.707 277.478 329.61 277.142 329.61C276.806 329.61 276.548 329.724 276.366 329.953C276.185 330.174 276.091 330.48 276.084 330.87H274.714C274.741 330.063 274.979 329.452 275.429 329.036C275.886 328.619 276.464 328.411 277.163 328.411C277.928 328.411 278.516 328.616 278.926 329.025C279.336 329.429 279.541 329.963 279.541 330.628C279.541 331.152 279.4 331.652 279.118 332.129C278.835 332.606 278.513 333.023 278.15 333.379C277.787 333.728 277.314 334.152 276.729 334.649H279.702V335.818H274.724V334.77L275.248 334.326Z" fill="#20294C"/>
<circle cx="257.482" cy="303.289" r="11.997" fill="#919AFF" fill-opacity="0.24" stroke="#919AFF" stroke-width="1.09063"/>
<rect x="213.311" y="347.459" width="89.432" height="8.72508" rx="2.18127" fill="#676B89" fill-opacity="0.15"/>
<rect x="191.498" y="387.813" width="134.148" height="95.9758" rx="18.5408" fill="#F0F1F5"/>
<circle cx="257.482" cy="416.715" r="11.997" fill="#919AFF" fill-opacity="0.24" stroke="#919AFF" stroke-width="1.09063"/>
<path d="M235.912 445.817C235.912 445.125 236.067 444.507 236.376 443.963C236.691 443.412 237.118 442.986 237.656 442.683C238.2 442.374 238.808 442.22 239.48 442.22C240.266 442.22 240.954 442.421 241.545 442.824C242.137 443.227 242.55 443.785 242.785 444.497H241.163C241.001 444.161 240.773 443.909 240.477 443.741C240.188 443.573 239.852 443.489 239.47 443.489C239.06 443.489 238.694 443.587 238.371 443.782C238.055 443.97 237.807 444.238 237.625 444.588C237.451 444.937 237.363 445.347 237.363 445.817C237.363 446.281 237.451 446.691 237.625 447.047C237.807 447.396 238.055 447.668 238.371 447.863C238.694 448.051 239.06 448.145 239.47 448.145C239.852 448.145 240.188 448.061 240.477 447.893C240.773 447.719 241.001 447.463 241.163 447.127H242.785C242.55 447.846 242.137 448.407 241.545 448.81C240.961 449.207 240.272 449.405 239.48 449.405C238.808 449.405 238.2 449.254 237.656 448.951C237.118 448.642 236.691 448.216 236.376 447.672C236.067 447.127 235.912 446.509 235.912 445.817ZM246.519 449.435C245.982 449.435 245.498 449.318 245.068 449.082C244.638 448.841 244.299 448.501 244.05 448.065C243.809 447.628 243.688 447.124 243.688 446.553C243.688 445.982 243.812 445.478 244.061 445.041C244.316 444.605 244.662 444.269 245.099 444.034C245.535 443.792 246.022 443.671 246.56 443.671C247.097 443.671 247.584 443.792 248.021 444.034C248.458 444.269 248.8 444.605 249.049 445.041C249.304 445.478 249.432 445.982 249.432 446.553C249.432 447.124 249.301 447.628 249.039 448.065C248.784 448.501 248.434 448.841 247.991 449.082C247.554 449.318 247.064 449.435 246.519 449.435ZM246.519 448.206C246.775 448.206 247.013 448.145 247.235 448.024C247.463 447.897 247.645 447.708 247.779 447.46C247.914 447.211 247.981 446.909 247.981 446.553C247.981 446.022 247.84 445.616 247.557 445.334C247.282 445.045 246.943 444.9 246.54 444.9C246.137 444.9 245.797 445.045 245.522 445.334C245.253 445.616 245.119 446.022 245.119 446.553C245.119 447.084 245.25 447.494 245.512 447.782C245.78 448.065 246.116 448.206 246.519 448.206ZM255.788 443.761V449.344H254.367V448.639C254.185 448.881 253.947 449.072 253.651 449.213C253.362 449.348 253.047 449.415 252.704 449.415C252.267 449.415 251.881 449.324 251.545 449.143C251.209 448.955 250.944 448.683 250.749 448.327C250.561 447.964 250.467 447.534 250.467 447.037V443.761H251.878V446.835C251.878 447.279 251.988 447.621 252.21 447.863C252.432 448.098 252.734 448.216 253.117 448.216C253.507 448.216 253.812 448.098 254.034 447.863C254.256 447.621 254.367 447.279 254.367 446.835V443.761H255.788ZM258.641 444.628C258.822 444.333 259.057 444.101 259.346 443.933C259.642 443.765 259.978 443.681 260.354 443.681V445.162H259.981C259.538 445.162 259.202 445.266 258.973 445.475C258.752 445.683 258.641 446.046 258.641 446.563V449.344H257.23V443.761H258.641V444.628ZM263.491 449.435C263.034 449.435 262.625 449.354 262.262 449.193C261.899 449.025 261.61 448.8 261.395 448.518C261.187 448.236 261.073 447.923 261.052 447.581H262.473C262.5 447.796 262.604 447.974 262.786 448.115C262.974 448.256 263.206 448.327 263.481 448.327C263.75 448.327 263.958 448.273 264.106 448.165C264.26 448.058 264.338 447.92 264.338 447.752C264.338 447.571 264.244 447.436 264.056 447.349C263.874 447.255 263.582 447.154 263.179 447.047C262.762 446.946 262.42 446.842 262.151 446.734C261.889 446.627 261.66 446.462 261.466 446.241C261.277 446.019 261.183 445.72 261.183 445.344C261.183 445.035 261.271 444.752 261.445 444.497C261.627 444.242 261.882 444.04 262.211 443.892C262.547 443.745 262.94 443.671 263.39 443.671C264.056 443.671 264.586 443.839 264.983 444.175C265.379 444.504 265.597 444.951 265.638 445.515H264.287C264.267 445.293 264.173 445.119 264.005 444.991C263.844 444.857 263.626 444.789 263.35 444.789C263.095 444.789 262.897 444.836 262.756 444.93C262.621 445.025 262.554 445.156 262.554 445.323C262.554 445.512 262.648 445.656 262.836 445.757C263.024 445.851 263.317 445.948 263.713 446.049C264.116 446.15 264.449 446.254 264.711 446.361C264.973 446.469 265.198 446.637 265.386 446.865C265.581 447.087 265.681 447.383 265.688 447.752C265.688 448.075 265.597 448.364 265.416 448.619C265.241 448.874 264.986 449.076 264.65 449.223C264.321 449.365 263.935 449.435 263.491 449.435ZM272.086 446.432C272.086 446.634 272.073 446.815 272.046 446.976H267.965C267.998 447.379 268.139 447.695 268.388 447.923C268.637 448.152 268.942 448.266 269.305 448.266C269.829 448.266 270.202 448.041 270.424 447.591H271.945C271.784 448.128 271.475 448.572 271.018 448.921C270.561 449.264 270 449.435 269.335 449.435C268.798 449.435 268.314 449.318 267.884 449.082C267.461 448.841 267.128 448.501 266.887 448.065C266.651 447.628 266.534 447.124 266.534 446.553C266.534 445.975 266.651 445.468 266.887 445.031C267.122 444.595 267.451 444.259 267.874 444.024C268.297 443.788 268.784 443.671 269.335 443.671C269.866 443.671 270.34 443.785 270.756 444.013C271.179 444.242 271.505 444.568 271.734 444.991C271.969 445.407 272.086 445.888 272.086 446.432ZM270.625 446.029C270.619 445.666 270.488 445.377 270.232 445.162C269.977 444.941 269.665 444.83 269.295 444.83C268.946 444.83 268.65 444.937 268.408 445.152C268.173 445.36 268.029 445.653 267.975 446.029H270.625ZM275.397 447.913V446.805L278.692 442.089H280.335V446.684H281.221V447.913H280.335V449.344H278.924V447.913H275.397ZM279.014 443.6L276.949 446.684H279.014V443.6Z" fill="#20294C"/>
<rect x="213.311" y="460.885" width="89.432" height="8.72508" rx="2.18127" fill="#676B89" fill-opacity="0.15"/>
<path d="M89.0916 332.391C89.0916 331.699 89.2462 331.081 89.5552 330.537C89.871 329.986 90.2976 329.56 90.835 329.257C91.3792 328.948 91.9872 328.794 92.6591 328.794C93.4451 328.794 94.1337 328.995 94.7249 329.398C95.3162 329.801 95.7293 330.359 95.9645 331.071H94.342C94.1808 330.735 93.9523 330.483 93.6567 330.315C93.3678 330.147 93.0319 330.063 92.649 330.063C92.2392 330.063 91.873 330.161 91.5505 330.356C91.2348 330.544 90.9862 330.813 90.8048 331.162C90.6301 331.511 90.5428 331.921 90.5428 332.391C90.5428 332.855 90.6301 333.265 90.8048 333.621C90.9862 333.97 91.2348 334.242 91.5505 334.437C91.873 334.625 92.2392 334.719 92.649 334.719C93.0319 334.719 93.3678 334.635 93.6567 334.467C93.9523 334.293 94.1808 334.037 94.342 333.701H95.9645C95.7293 334.42 95.3162 334.981 94.7249 335.384C94.1404 335.781 93.4518 335.979 92.6591 335.979C91.9872 335.979 91.3792 335.828 90.835 335.525C90.2976 335.216 89.871 334.79 89.5552 334.246C89.2462 333.701 89.0916 333.083 89.0916 332.391ZM99.699 336.009C99.1615 336.009 98.6778 335.892 98.2478 335.656C97.8178 335.415 97.4786 335.075 97.23 334.639C96.9881 334.202 96.8672 333.698 96.8672 333.127C96.8672 332.556 96.9915 332.052 97.2401 331.615C97.4954 331.179 97.8413 330.843 98.278 330.608C98.7147 330.366 99.2018 330.245 99.7393 330.245C100.277 330.245 100.764 330.366 101.2 330.608C101.637 330.843 101.98 331.179 102.228 331.615C102.484 332.052 102.611 332.556 102.611 333.127C102.611 333.698 102.48 334.202 102.218 334.639C101.963 335.075 101.614 335.415 101.17 335.656C100.734 335.892 100.243 336.009 99.699 336.009ZM99.699 334.78C99.9543 334.78 100.193 334.719 100.414 334.598C100.643 334.471 100.824 334.283 100.959 334.034C101.093 333.785 101.16 333.483 101.16 333.127C101.16 332.596 101.019 332.19 100.737 331.908C100.461 331.619 100.122 331.474 99.7191 331.474C99.316 331.474 98.9767 331.619 98.7013 331.908C98.4326 332.19 98.2982 332.596 98.2982 333.127C98.2982 333.658 98.4292 334.068 98.6912 334.356C98.9599 334.639 99.2959 334.78 99.699 334.78ZM108.967 330.336V335.918H107.546V335.213C107.365 335.455 107.126 335.646 106.831 335.787C106.542 335.922 106.226 335.989 105.883 335.989C105.447 335.989 105.06 335.898 104.725 335.717C104.389 335.529 104.123 335.257 103.928 334.901C103.74 334.538 103.646 334.108 103.646 333.611V330.336H105.057V333.409C105.057 333.853 105.168 334.195 105.39 334.437C105.611 334.672 105.914 334.79 106.297 334.79C106.686 334.79 106.992 334.672 107.214 334.437C107.435 334.195 107.546 333.853 107.546 333.409V330.336H108.967ZM111.82 331.202C112.002 330.907 112.237 330.675 112.526 330.507C112.821 330.339 113.157 330.255 113.534 330.255V331.736H113.161C112.717 331.736 112.381 331.84 112.153 332.049C111.931 332.257 111.82 332.62 111.82 333.137V335.918H110.41V330.336H111.82V331.202ZM116.671 336.009C116.214 336.009 115.804 335.929 115.441 335.767C115.078 335.599 114.79 335.374 114.575 335.092C114.366 334.81 114.252 334.498 114.232 334.155H115.653C115.68 334.37 115.784 334.548 115.965 334.689C116.153 334.83 116.385 334.901 116.661 334.901C116.929 334.901 117.138 334.847 117.285 334.739C117.44 334.632 117.517 334.494 117.517 334.326C117.517 334.145 117.423 334.01 117.235 333.923C117.054 333.829 116.761 333.728 116.358 333.621C115.942 333.52 115.599 333.416 115.33 333.308C115.068 333.201 114.84 333.036 114.645 332.815C114.457 332.593 114.363 332.294 114.363 331.918C114.363 331.609 114.45 331.326 114.625 331.071C114.806 330.816 115.062 330.614 115.391 330.467C115.727 330.319 116.12 330.245 116.57 330.245C117.235 330.245 117.766 330.413 118.162 330.749C118.559 331.078 118.777 331.525 118.817 332.089H117.467C117.447 331.867 117.353 331.693 117.185 331.565C117.023 331.431 116.805 331.363 116.53 331.363C116.274 331.363 116.076 331.41 115.935 331.504C115.801 331.599 115.733 331.73 115.733 331.898C115.733 332.086 115.828 332.23 116.016 332.331C116.204 332.425 116.496 332.522 116.892 332.623C117.295 332.724 117.628 332.828 117.89 332.935C118.152 333.043 118.377 333.211 118.565 333.439C118.76 333.661 118.861 333.957 118.868 334.326C118.868 334.649 118.777 334.938 118.595 335.193C118.421 335.448 118.165 335.65 117.83 335.797C117.5 335.939 117.114 336.009 116.671 336.009ZM125.266 333.006C125.266 333.208 125.253 333.389 125.226 333.55H121.144C121.178 333.953 121.319 334.269 121.568 334.498C121.816 334.726 122.122 334.84 122.485 334.84C123.009 334.84 123.381 334.615 123.603 334.165H125.125C124.964 334.702 124.655 335.146 124.198 335.495C123.741 335.838 123.18 336.009 122.515 336.009C121.977 336.009 121.494 335.892 121.064 335.656C120.64 335.415 120.308 335.075 120.066 334.639C119.831 334.202 119.713 333.698 119.713 333.127C119.713 332.549 119.831 332.042 120.066 331.605C120.301 331.169 120.63 330.833 121.054 330.598C121.477 330.362 121.964 330.245 122.515 330.245C123.046 330.245 123.519 330.359 123.936 330.587C124.359 330.816 124.685 331.142 124.913 331.565C125.148 331.981 125.266 332.462 125.266 333.006ZM123.805 332.603C123.798 332.24 123.667 331.951 123.412 331.736C123.156 331.515 122.844 331.404 122.474 331.404C122.125 331.404 121.83 331.511 121.588 331.726C121.353 331.934 121.208 332.227 121.154 332.603H123.805ZM128.465 329.872V328.572H130.894V335.918H129.443V329.872H128.465Z" fill="#20294C"/>
<path d="M87.9008 445.817C87.9008 445.125 88.0554 444.507 88.3644 443.963C88.6802 443.412 89.1068 442.986 89.6442 442.683C90.1884 442.374 90.7964 442.22 91.4683 442.22C92.2543 442.22 92.9429 442.421 93.5341 442.824C94.1254 443.227 94.5385 443.785 94.7737 444.497H93.1512C92.99 444.161 92.7615 443.909 92.4659 443.741C92.1771 443.573 91.8411 443.489 91.4582 443.489C91.0484 443.489 90.6822 443.587 90.3597 443.782C90.044 443.97 89.7954 444.238 89.614 444.588C89.4393 444.937 89.352 445.347 89.352 445.817C89.352 446.281 89.4393 446.691 89.614 447.047C89.7954 447.396 90.044 447.668 90.3597 447.863C90.6822 448.051 91.0484 448.145 91.4582 448.145C91.8411 448.145 92.1771 448.061 92.4659 447.893C92.7615 447.719 92.99 447.463 93.1512 447.127H94.7737C94.5385 447.846 94.1254 448.407 93.5341 448.81C92.9497 449.207 92.261 449.405 91.4683 449.405C90.7964 449.405 90.1884 449.254 89.6442 448.951C89.1068 448.642 88.6802 448.216 88.3644 447.672C88.0554 447.127 87.9008 446.509 87.9008 445.817ZM98.5082 449.435C97.9707 449.435 97.487 449.318 97.057 449.082C96.627 448.841 96.2878 448.501 96.0392 448.065C95.7973 447.628 95.6764 447.124 95.6764 446.553C95.6764 445.982 95.8007 445.478 96.0493 445.041C96.3046 444.605 96.6506 444.269 97.0872 444.034C97.5239 443.792 98.011 443.671 98.5485 443.671C99.0859 443.671 99.573 443.792 100.01 444.034C100.446 444.269 100.789 444.605 101.038 445.041C101.293 445.478 101.421 445.982 101.421 446.553C101.421 447.124 101.29 447.628 101.028 448.065C100.772 448.501 100.423 448.841 99.9795 449.082C99.5428 449.318 99.0523 449.435 98.5082 449.435ZM98.5082 448.206C98.7635 448.206 99.002 448.145 99.2237 448.024C99.4521 447.897 99.6335 447.708 99.7678 447.46C99.9022 447.211 99.9694 446.909 99.9694 446.553C99.9694 446.022 99.8283 445.616 99.5461 445.334C99.2707 445.045 98.9314 444.9 98.5283 444.9C98.1252 444.9 97.7859 445.045 97.5105 445.334C97.2418 445.616 97.1074 446.022 97.1074 446.553C97.1074 447.084 97.2384 447.494 97.5004 447.782C97.7692 448.065 98.1051 448.206 98.5082 448.206ZM107.776 443.761V449.344H106.355V448.639C106.174 448.881 105.936 449.072 105.64 449.213C105.351 449.348 105.035 449.415 104.693 449.415C104.256 449.415 103.87 449.324 103.534 449.143C103.198 448.955 102.932 448.683 102.738 448.327C102.55 447.964 102.455 447.534 102.455 447.037V443.761H103.866V446.835C103.866 447.279 103.977 447.621 104.199 447.863C104.421 448.098 104.723 448.216 105.106 448.216C105.495 448.216 105.801 448.098 106.023 447.863C106.245 447.621 106.355 447.279 106.355 446.835V443.761H107.776ZM110.63 444.628C110.811 444.333 111.046 444.101 111.335 443.933C111.631 443.765 111.967 443.681 112.343 443.681V445.162H111.97C111.527 445.162 111.191 445.266 110.962 445.475C110.74 445.683 110.63 446.046 110.63 446.563V449.344H109.219V443.761H110.63V444.628ZM115.48 449.435C115.023 449.435 114.613 449.354 114.25 449.193C113.888 449.025 113.599 448.8 113.384 448.518C113.175 448.236 113.061 447.923 113.041 447.581H114.462C114.489 447.796 114.593 447.974 114.774 448.115C114.963 448.256 115.194 448.327 115.47 448.327C115.739 448.327 115.947 448.273 116.095 448.165C116.249 448.058 116.326 447.92 116.326 447.752C116.326 447.571 116.232 447.436 116.044 447.349C115.863 447.255 115.571 447.154 115.167 447.047C114.751 446.946 114.408 446.842 114.14 446.734C113.878 446.627 113.649 446.462 113.454 446.241C113.266 446.019 113.172 445.72 113.172 445.344C113.172 445.035 113.259 444.752 113.434 444.497C113.616 444.242 113.871 444.04 114.2 443.892C114.536 443.745 114.929 443.671 115.379 443.671C116.044 443.671 116.575 443.839 116.971 444.175C117.368 444.504 117.586 444.951 117.626 445.515H116.276C116.256 445.293 116.162 445.119 115.994 444.991C115.833 444.857 115.614 444.789 115.339 444.789C115.083 444.789 114.885 444.836 114.744 444.93C114.61 445.025 114.543 445.156 114.543 445.323C114.543 445.512 114.637 445.656 114.825 445.757C115.013 445.851 115.305 445.948 115.702 446.049C116.105 446.15 116.437 446.254 116.699 446.361C116.961 446.469 117.186 446.637 117.374 446.865C117.569 447.087 117.67 447.383 117.677 447.752C117.677 448.075 117.586 448.364 117.405 448.619C117.23 448.874 116.975 449.076 116.639 449.223C116.31 449.365 115.923 449.435 115.48 449.435ZM124.075 446.432C124.075 446.634 124.062 446.815 124.035 446.976H119.953C119.987 447.379 120.128 447.695 120.377 447.923C120.625 448.152 120.931 448.266 121.294 448.266C121.818 448.266 122.191 448.041 122.412 447.591H123.934C123.773 448.128 123.464 448.572 123.007 448.921C122.55 449.264 121.989 449.435 121.324 449.435C120.787 449.435 120.303 449.318 119.873 449.082C119.45 448.841 119.117 448.501 118.875 448.065C118.64 447.628 118.522 447.124 118.522 446.553C118.522 445.975 118.64 445.468 118.875 445.031C119.11 444.595 119.44 444.259 119.863 444.024C120.286 443.788 120.773 443.671 121.324 443.671C121.855 443.671 122.328 443.785 122.745 444.013C123.168 444.242 123.494 444.568 123.722 444.991C123.958 445.407 124.075 445.888 124.075 446.432ZM122.614 446.029C122.607 445.666 122.476 445.377 122.221 445.162C121.966 444.941 121.653 444.83 121.284 444.83C120.934 444.83 120.639 444.937 120.397 445.152C120.162 445.36 120.017 445.653 119.964 446.029H122.614ZM127.466 443.933C127.5 443.261 127.735 442.744 128.171 442.381C128.615 442.011 129.196 441.827 129.915 441.827C130.405 441.827 130.825 441.914 131.174 442.089C131.524 442.257 131.786 442.488 131.96 442.784C132.142 443.073 132.233 443.402 132.233 443.772C132.233 444.195 132.122 444.554 131.9 444.85C131.685 445.139 131.426 445.334 131.124 445.434V445.475C131.514 445.596 131.816 445.811 132.031 446.12C132.253 446.429 132.364 446.825 132.364 447.309C132.364 447.712 132.27 448.071 132.081 448.387C131.9 448.703 131.628 448.951 131.265 449.133C130.909 449.307 130.479 449.395 129.975 449.395C129.216 449.395 128.598 449.203 128.121 448.82C127.644 448.437 127.392 447.873 127.365 447.127H128.736C128.749 447.457 128.86 447.722 129.068 447.923C129.283 448.118 129.575 448.216 129.945 448.216C130.288 448.216 130.55 448.122 130.731 447.934C130.919 447.739 131.013 447.49 131.013 447.188C131.013 446.785 130.886 446.496 130.63 446.321C130.375 446.146 129.979 446.059 129.441 446.059H129.149V444.9H129.441C130.395 444.9 130.872 444.581 130.872 443.943C130.872 443.654 130.785 443.429 130.61 443.268C130.442 443.106 130.197 443.026 129.874 443.026C129.559 443.026 129.313 443.113 129.139 443.288C128.971 443.456 128.873 443.671 128.847 443.933H127.466Z" fill="#20294C"/>
<defs>
<linearGradient id="paint0_linear_1_28" x1="185.5" y1="5" x2="185.5" y2="531.776" gradientUnits="userSpaceOnUse">
<stop stop-color="#F0F1F5"/>
<stop offset="1" stop-color="#F0F1F5" stop-opacity="0.36"/>
</linearGradient>
</defs>
</svg>
