<svg width="371" height="532" viewBox="0 0 371 532" fill="none" xmlns="http://www.w3.org/2000/svg">
<path d="M366 531.78V40.9801C366 21.1088 349.891 5 330.02 5H40.9801C21.1088 5 5 21.1088 5 40.9801V531.78" stroke="url(#paint0_linear_1_138)" stroke-width="8.39"/>
<path d="M141.714 9.021H229.171V21.5419C229.171 26.8409 224.876 31.1365 219.577 31.1365H151.309C146.01 31.1365 141.714 26.8409 141.714 21.5419V9.021Z" fill="#F0F1F5"/>
<rect x="102.148" y="86.5547" width="167.907" height="11.9934" rx="2.39867" fill="#7475E4"/>
<rect x="138.128" y="108.143" width="94.7475" height="11.9934" rx="2.0105" fill="#F0F1F5"/>
<rect x="86.5578" y="356.405" width="199.09" height="8.39535" rx="2.0105" fill="#E4E5EB"/>
<rect x="109.345" y="375.594" width="153.515" height="8.39535" rx="2.0105" fill="#E4E5EB"/>
<path d="M144.867 198.707L182.968 178.064C184.763 177.092 186.929 177.099 188.716 178.083L226.173 198.699C228.089 199.753 229.279 201.766 229.279 203.952V246.132C229.279 248.267 228.143 250.241 226.298 251.315L188.84 273.109C186.988 274.186 184.703 274.194 182.844 273.129L144.744 251.308C142.878 250.24 141.727 248.254 141.727 246.104V203.979C141.727 201.779 142.933 199.755 144.867 198.707Z" fill="url(#paint1_linear_1_138)"/>
<path d="M206.549 232.611C206.393 232.77 206.322 232.999 206.357 233.224L206.89 236.329C206.935 236.592 206.83 236.859 206.621 237.011C206.415 237.169 206.143 237.188 205.919 237.061L203.263 235.603C203.171 235.552 203.069 235.524 202.964 235.521H202.801C202.745 235.529 202.69 235.548 202.639 235.577L199.983 237.042C199.852 237.112 199.703 237.136 199.557 237.112C199.202 237.041 198.966 236.685 199.024 236.31L199.557 233.204C199.593 232.978 199.521 232.747 199.366 232.586L197.201 230.377C197.02 230.192 196.957 229.914 197.04 229.664C197.12 229.414 197.325 229.231 197.573 229.19L200.553 228.735C200.779 228.711 200.978 228.566 201.08 228.351L202.393 225.517C202.425 225.454 202.465 225.396 202.513 225.346L202.567 225.302C202.595 225.269 202.628 225.242 202.664 225.22L202.729 225.195L202.831 225.151H203.084C203.309 225.175 203.507 225.317 203.611 225.53L204.942 228.351C205.038 228.557 205.224 228.701 205.439 228.735L208.419 229.19C208.671 229.228 208.882 229.411 208.965 229.664C209.043 229.917 208.976 230.195 208.791 230.377L206.549 232.611Z" fill="white" fill-opacity="0.54"/>
<path d="M173.375 232.611C173.22 232.77 173.149 232.999 173.184 233.224L173.717 236.329C173.762 236.592 173.656 236.859 173.447 237.011C173.242 237.169 172.969 237.188 172.746 237.061L170.09 235.603C169.998 235.552 169.895 235.524 169.79 235.521H169.628C169.571 235.529 169.516 235.548 169.466 235.577L166.81 237.042C166.678 237.112 166.53 237.136 166.384 237.112C166.029 237.041 165.792 236.685 165.85 236.31L166.384 233.204C166.419 232.978 166.348 232.747 166.193 232.586L164.028 230.377C163.847 230.192 163.784 229.914 163.866 229.664C163.947 229.414 164.152 229.231 164.399 229.19L167.379 228.735C167.606 228.711 167.805 228.566 167.907 228.351L169.22 225.517C169.251 225.454 169.291 225.396 169.34 225.346L169.394 225.302C169.422 225.269 169.455 225.242 169.491 225.22L169.556 225.195L169.658 225.151H169.91C170.136 225.175 170.334 225.317 170.438 225.53L171.768 228.351C171.864 228.557 172.051 228.701 172.266 228.735L175.246 229.19C175.498 229.228 175.708 229.411 175.792 229.664C175.87 229.917 175.802 230.195 175.618 230.377L173.375 232.611Z" fill="white" fill-opacity="0.54"/>
<path d="M194.495 228.152C194.144 228.485 193.982 228.966 194.062 229.438L195.268 235.959C195.369 236.512 195.131 237.072 194.658 237.391C194.194 237.722 193.577 237.762 193.071 237.497L187.065 234.435C186.857 234.326 186.625 234.268 186.387 234.262H186.02C185.892 234.28 185.768 234.32 185.654 234.381L179.647 237.457C179.35 237.603 179.013 237.655 178.684 237.603C177.881 237.455 177.346 236.707 177.477 235.918L178.684 229.397C178.764 228.921 178.603 228.437 178.251 228.099L173.355 223.46C172.945 223.072 172.803 222.488 172.99 221.962C173.172 221.437 173.636 221.054 174.196 220.968L180.935 220.012C181.447 219.961 181.898 219.656 182.128 219.205L185.098 213.254C185.168 213.121 185.259 212.999 185.369 212.896L185.491 212.803C185.555 212.734 185.628 212.677 185.709 212.631L185.857 212.578L186.088 212.485H186.659C187.168 212.537 187.617 212.835 187.852 213.28L190.861 219.205C191.078 219.639 191.499 219.94 191.986 220.012L198.726 220.968C199.295 221.048 199.771 221.432 199.96 221.962C200.137 222.494 199.984 223.077 199.566 223.46L194.495 228.152Z" fill="white"/>
<defs>
<linearGradient id="paint0_linear_1_138" x1="185.5" y1="5" x2="185.5" y2="531.78" gradientUnits="userSpaceOnUse">
<stop stop-color="#F0F1F5"/>
<stop offset="1" stop-color="#F0F1F5" stop-opacity="0.36"/>
</linearGradient>
<linearGradient id="paint1_linear_1_138" x1="185.503" y1="176.504" x2="185.503" y2="274.85" gradientUnits="userSpaceOnUse">
<stop stop-color="#7475E4"/>
<stop offset="1" stop-color="#9874E4"/>
</linearGradient>
</defs>
</svg>
