<svg width="361" height="53" viewBox="0 0 361 53" fill="none" xmlns="http://www.w3.org/2000/svg">
<path fill-rule="evenodd" clip-rule="evenodd" d="M0 26.1836C0 11.7228 11.7228 0 26.1836 0H146.517C152.579 0 158.159 2.05991 162.597 5.51793C167.679 9.47743 173.343 13.3704 179.785 13.3704H181.215C187.657 13.3704 193.321 9.47743 198.403 5.51794C202.841 2.05992 208.421 5.34489e-06 214.483 5.34489e-06H334.816C349.277 5.34489e-06 361 11.7228 361 26.1836C361 40.6445 349.277 52.3673 334.816 52.3673H214.483C208.421 52.3673 202.841 50.3074 198.403 46.8494C193.321 42.8899 187.657 38.9969 181.215 38.9969H179.785C173.343 38.9969 167.679 42.8899 162.597 46.8494C158.159 50.3074 152.579 52.3673 146.517 52.3673H26.1836C11.7228 52.3673 0 40.6445 0 26.1836Z" fill="black"/>
</svg>
